<?xml version="1.0" standalone="no"?><!DOCTYPE svg PUBLIC "-//W3C//DTD SVG 1.1//EN" "http://www.w3.org/Graphics/SVG/1.1/DTD/svg11.dtd"><svg t="1705367465222" class="icon" viewBox="0 0 1024 1024" version="1.1" xmlns="http://www.w3.org/2000/svg" p-id="4414" xmlns:xlink="http://www.w3.org/1999/xlink" width="32" height="32"><path d="M918.3 468.6c-18.8 0-34 15.2-34 34v309.6c0 6.6-14.4 18.7-38 18.7H190.2c-23.5 0-38-12.1-38-18.7V486c0-18.8-15.2-34-34-34s-34 15.2-34 34v326.3c0 24.8 12.8 48.4 35 64.7 19.4 14.2 44.6 22 71 22h656.1c26.4 0 51.6-7.8 71-22 22.2-16.3 35-39.9 35-64.7V502.6c0-18.7-15.3-34-34-34z" fill="" p-id="4415"></path><path d="M450.4 679.4c17.8 18 41.5 28 66.8 28.1h0.5c25.1 0 48.8-9.7 66.6-27.4l154.4-152.8c13.3-13.2 13.5-34.7 0.2-48.1-13.2-13.3-34.7-13.5-48.1-0.2L551.3 617.1c0.6-2.6 1-5.3 1-8.1V149.1c0-18.8-15.2-34-34-34s-34 15.2-34 34V609c0 3.2 0.5 6.3 1.3 9.3L345.9 477.1c-13.2-13.3-34.7-13.5-48.1-0.2-13.3 13.2-13.5 34.7-0.2 48.1l152.8 154.4z" fill="" p-id="4416"></path></svg>