<?xml version="1.0" standalone="no"?><!DOCTYPE svg PUBLIC "-//W3C//DTD SVG 1.1//EN" "http://www.w3.org/Graphics/SVG/1.1/DTD/svg11.dtd"><svg t="1691465588088" class="icon" viewBox="0 0 1024 1024" version="1.1" xmlns="http://www.w3.org/2000/svg" p-id="5575" xmlns:xlink="http://www.w3.org/1999/xlink" width="32" height="32"><path d="M742.994 838.394h-460.44c-57.36 0-104-46.64-104-104v-447c0-57.36 46.64-104 104-104h460.44c57.36 0 104 46.64 104 104v447c0 57.32-46.64 104-104 104z m-460.44-607c-30.88 0-56 25.12-56 56v447c0 30.88 25.12 56 56 56h460.44c30.88 0 56-25.12 56-56v-447c0-30.88-25.12-56-56-56h-460.44z" fill="#303135" p-id="5576"></path><path d="M467.074 545.554c13.24 0 24-10.76 24-24s-10.76-24-24-24h-118.44v-57.48h118.48c13.24 0 24-10.76 24-24s-10.76-24-24-24h-142.48c-13.24 0-24 10.76-24 24v207.84c0 13.24 10.76 24 24 24h142.48c13.24 0 24-10.76 24-24s-10.76-24-24-24h-118.48v-54.36h118.44z m91.4 104.4c-13.24 0-24-10.76-24-24v-204.76c0-10.44 6.76-19.72 16.72-22.88 9.96-3.16 20.84 0.48 26.88 9l97.36 137.56v-128.8c0-13.24 10.76-24 24-24s24 10.76 24 24v204.24c0 10.44-6.76 19.72-16.72 22.88-9.96 3.16-20.84-0.48-26.88-9l-97.36-137.56v129.32c0 13.24-10.72 24-24 24z" fill="#DE1515" p-id="5577"></path></svg>