<?xml version="1.0" standalone="no"?><!DOCTYPE svg PUBLIC "-//W3C//DTD SVG 1.1//EN" "http://www.w3.org/Graphics/SVG/1.1/DTD/svg11.dtd"><svg t="1723010320125" class="icon" viewBox="0 0 1024 1024" version="1.1" xmlns="http://www.w3.org/2000/svg" p-id="4662" xmlns:xlink="http://www.w3.org/1999/xlink" width="16" height="16"><path d="M889.258667 128.085333H132.266667a48.128 48.128 0 0 0-48.128 48.128v563.114667a48.128 48.128 0 0 0 48.128 48.128h352.938666v58.624H226.133333a21.333333 21.333333 0 0 0 0 42.666667h569.344a21.333333 21.333333 0 0 0 0-42.666667H536.32v-58.624h352.938667a48.128 48.128 0 0 0 48.128-48.128V176.213333c0.085333-26.538667-21.504-48.128-48.128-48.128zM324.266667 546.133333c-84.821333 0-153.6-68.778667-153.6-153.6s68.778667-153.6 153.6-153.6v153.6h153.6c0 84.821333-68.778667 153.6-153.6 153.6z m261.802666 167.509334H537.6V495.957333h48.469333v217.685334z m92.16 1.962666H629.76V418.133333h48.469333v297.472z m92.16 0H721.92V471.978667h48.469333v243.626666z m92.074667 0h-48.469333V418.133333h48.469333v297.472z" fill="#3E4CFF" p-id="4663"></path></svg>