<svg width="25" height="24" viewBox="0 0 25 24" fill="none" xmlns="http://www.w3.org/2000/svg">
<g id="star">
<path id="Union" fill-rule="evenodd" clip-rule="evenodd" d="M14.727 9.77547L12.5001 5.03105L10.2732 9.77547L5.11231 10.564L8.85237 14.3972L7.98843 19.6936L12.5001 17.1996L17.0117 19.6936L16.1477 14.3972L19.8878 10.564L14.727 9.77547ZM9.25538 8.41356L4.30862 9.16936C3.3431 9.31688 2.94885 10.4945 3.63095 11.1936L7.25006 14.9029L6.40854 20.0618C6.24727 21.0505 7.29675 21.7899 8.17343 21.3053L12.5001 18.9136L16.8267 21.3053C17.7034 21.7899 18.7528 21.0505 18.5916 20.0618L17.7501 14.9029L21.3692 11.1936C22.0513 10.4945 21.657 9.31688 20.6915 9.16936L15.7447 8.41356L13.5863 3.81512C13.1544 2.89496 11.8457 2.89496 11.4138 3.81512L9.25538 8.41356Z" fill="#141414"/>
</g>
</svg>
