<?xml version="1.0" standalone="no"?><!DOCTYPE svg PUBLIC "-//W3C//DTD SVG 1.1//EN" "http://www.w3.org/Graphics/SVG/1.1/DTD/svg11.dtd"><svg t="1704695634700" class="icon" viewBox="0 0 2176 1024" version="1.1" xmlns="http://www.w3.org/2000/svg" p-id="8429" width="68" height="32" xmlns:xlink="http://www.w3.org/1999/xlink"><path d="M2041.6 57.6H140.8c-38.4 0-70.4 25.6-70.4 64v768c0 38.4 25.6 64 70.4 64h1900.8c38.4 0 70.4-25.6 70.4-64V128c0-38.4-25.6-70.4-70.4-70.4z m0 838.4H140.8V128h1900.8v768zM1152 627.2c0 57.6 25.6 83.2 83.2 83.2 19.2 0 32 0 44.8-6.4h-6.4v-32c-6.4 6.4-12.8 6.4-25.6 6.4s-25.6-6.4-32-12.8c-6.4-6.4-6.4-19.2-6.4-38.4V473.6H1280v-38.4h-76.8V345.6l-51.2 12.8v64h-44.8v44.8h44.8v160z m569.6-76.8c0-19.2 6.4-38.4 19.2-57.6 12.8-19.2 32-25.6 51.2-25.6 44.8 0 70.4 25.6 70.4 83.2v160h57.6V537.6c0-38.4-12.8-64-25.6-83.2-19.2-19.2-38.4-32-76.8-32s-76.8 19.2-96 51.2v-44.8h-51.2v288h51.2V550.4z m-262.4 160c44.8 0 83.2-12.8 108.8-38.4 25.6-32 38.4-64 38.4-108.8s-12.8-76.8-38.4-102.4c-19.2-25.6-64-38.4-102.4-38.4-44.8 0-83.2 12.8-108.8 38.4-25.6 25.6-38.4 64-38.4 108.8s12.8 76.8 38.4 102.4c19.2 25.6 64 38.4 102.4 38.4z m-70.4-217.6c12.8-19.2 38.4-25.6 70.4-25.6 25.6 0 51.2 6.4 70.4 25.6 12.8 19.2 19.2 44.8 19.2 76.8s-6.4 57.6-19.2 76.8c-12.8 19.2-38.4 25.6-70.4 25.6-25.6 0-44.8-6.4-70.4-25.6-19.2-19.2-25.6-44.8-25.6-76.8s12.8-57.6 25.6-76.8zM499.2 678.4c25.6-25.6 38.4-51.2 38.4-83.2 0-25.6-6.4-44.8-25.6-64-19.2-19.2-38.4-32-64-32 19.2-6.4 38.4-12.8 51.2-32 19.2-19.2 25.6-38.4 25.6-57.6 0-25.6-12.8-44.8-32-64-25.6-25.6-57.6-32-96-32H275.2v396.8h121.6c44.8 0 76.8-6.4 102.4-32zM332.8 352H384c44.8 0 76.8 19.2 76.8 57.6 0 25.6-6.4 38.4-19.2 51.2-12.8 12.8-32 19.2-64 19.2h-44.8v-128z m0 313.6V531.2H384c64 0 96 19.2 96 64 0 19.2-6.4 38.4-25.6 51.2-12.8 12.8-32 19.2-64 19.2h-57.6z m614.4-38.4c0 57.6 25.6 83.2 83.2 83.2 19.2 0 32 0 44.8-6.4v-32c-6.4 6.4-12.8 6.4-25.6 6.4s-25.6-6.4-32-12.8c-6.4-6.4-6.4-19.2-6.4-38.4V473.6H1088v-38.4h-76.8V345.6l-51.2 12.8v64h-51.2v44.8h44.8v160zM704 716.8c38.4 0 70.4-19.2 89.6-51.2v44.8h64V428.8h-51.2v160c0 19.2-6.4 44.8-19.2 57.6-12.8 19.2-32 25.6-51.2 25.6-44.8 0-70.4-25.6-70.4-83.2V428.8h-64v172.8c0 76.8 38.4 115.2 102.4 115.2z" fill="#707070" p-id="8430"></path></svg>