<?xml version="1.0" standalone="no"?><!DOCTYPE svg PUBLIC "-//W3C//DTD SVG 1.1//EN" "http://www.w3.org/Graphics/SVG/1.1/DTD/svg11.dtd"><svg t="1703840429143" class="icon" viewBox="0 0 1024 1024" version="1.1" xmlns="http://www.w3.org/2000/svg" p-id="22547" xmlns:xlink="http://www.w3.org/1999/xlink" width="16" height="16"><path d="M758.528 330.538667v85.333333h85.333333v426.666667h-426.666666v-85.333334h-85.333334v170.666667h597.333334v-597.333333z" fill="#FFCA28" p-id="22548"></path><path d="M94.805333 96.128h603.136V699.306667H94.805333V96.128m158.464 503.936c13.44 28.501333 39.893333 51.925333 85.12 51.925333 50.261333 0 84.778667-26.794667 84.778667-85.418666v-193.706667H366.208v192.384c0 28.8-11.733333 36.181333-30.165333 36.181333-19.413333 0-27.477333-13.397333-36.522667-29.184l-46.250667 27.818667m200.405334-6.016c16.725333 32.853333 50.602667 57.941333 103.509333 57.941333 53.632 0 93.866667-27.776 93.866667-79.061333 0-47.232-27.178667-68.352-75.434667-89.130667l-14.08-6.016c-24.448-10.410667-34.816-17.408-34.816-34.176 0-13.738667 10.368-24.448 27.136-24.448 16.085333 0 26.794667 7.04 36.522667 24.448l43.904-29.141333c-18.432-32.170667-44.586667-44.586667-80.426667-44.586667-50.602667 0-83.114667 32.170667-83.114667 74.709334 0 46.250667 27.136 68.053333 68.010667 85.461333l14.08 6.016c26.154667 11.392 41.557333 18.432 41.557333 37.888 0 16.085333-15.061333 27.776-38.528 27.776-27.818667 0-43.904-14.378667-55.978666-34.474667z" fill="#FFCA28" p-id="22549"></path></svg>