<?xml version="1.0" standalone="no"?><!DOCTYPE svg PUBLIC "-//W3C//DTD SVG 1.1//EN" "http://www.w3.org/Graphics/SVG/1.1/DTD/svg11.dtd"><svg t="1733383102043" class="icon" viewBox="0 0 1024 1024" version="1.1" xmlns="http://www.w3.org/2000/svg" p-id="10420" width="32" height="32" xmlns:xlink="http://www.w3.org/1999/xlink"><path d="M859.2 615.808a38.4 38.4 0 0 1 4.352 48.96l-4.48 5.312L669.248 859.2a38.4 38.4 0 0 1-58.624-49.088l4.48-5.312 189.824-189.12a38.4 38.4 0 0 1 54.272 0.128z m0.064-383.68a38.4 38.4 0 0 1 4.224 49.024l-4.48 5.248L280.64 859.264a38.4 38.4 0 0 1-58.56-49.28l4.48-5.248 578.432-572.864a38.4 38.4 0 0 1 54.272 0.256z" p-id="10421" fill="#707070"></path></svg>